<svg id="_0080_market_analysis" xmlns="http://www.w3.org/2000/svg" xmlns:xlink="http://www.w3.org/1999/xlink" viewBox="0 0 500 500" data-imageid="market-analysis-31" imageName="Market Analysis" class="illustrations_image" style="width: 188px;"><defs><style>.cls-1_market-analysis-31{fill:url(#linear-gradient);}.cls-1_market-analysis-31,.cls-2_market-analysis-31,.cls-3_market-analysis-31,.cls-4_market-analysis-31,.cls-5_market-analysis-31,.cls-6_market-analysis-31,.cls-7_market-analysis-31,.cls-8_market-analysis-31,.cls-9_market-analysis-31,.cls-10_market-analysis-31,.cls-11_market-analysis-31,.cls-12_market-analysis-31,.cls-13_market-analysis-31,.cls-14_market-analysis-31,.cls-15_market-analysis-31,.cls-16_market-analysis-31,.cls-17_market-analysis-31,.cls-18_market-analysis-31,.cls-19_market-analysis-31{stroke-width:0px;}.cls-2_market-analysis-31{opacity:.18;}.cls-2_market-analysis-31,.cls-3_market-analysis-31,.cls-4_market-analysis-31,.cls-5_market-analysis-31,.cls-6_market-analysis-31,.cls-7_market-analysis-31,.cls-8_market-analysis-31,.cls-9_market-analysis-31{isolation:isolate;}.cls-2_market-analysis-31,.cls-7_market-analysis-31,.cls-19_market-analysis-31{fill:#68e1fd;}.cls-3_market-analysis-31{fill:url(#linear-gradient-12-market-analysis-31);}.cls-3_market-analysis-31,.cls-4_market-analysis-31,.cls-5_market-analysis-31,.cls-6_market-analysis-31,.cls-8_market-analysis-31,.cls-9_market-analysis-31{opacity:.69;}.cls-4_market-analysis-31{fill:url(#linear-gradient-13-market-analysis-31);}.cls-5_market-analysis-31{fill:url(#linear-gradient-11-market-analysis-31);}.cls-6_market-analysis-31{fill:url(#linear-gradient-10-market-analysis-31);}.cls-7_market-analysis-31{opacity:.47;}.cls-8_market-analysis-31{fill:url(#linear-gradient-9-market-analysis-31);}.cls-9_market-analysis-31{fill:url(#linear-gradient-8-market-analysis-31);}.cls-10_market-analysis-31{fill:url(#linear-gradient-4-market-analysis-31);}.cls-11_market-analysis-31{fill:url(#linear-gradient-2-market-analysis-31);}.cls-12_market-analysis-31{fill:url(#linear-gradient-3-market-analysis-31);}.cls-13_market-analysis-31{fill:url(#linear-gradient-7-market-analysis-31);}.cls-14_market-analysis-31{fill:url(#linear-gradient-5-market-analysis-31);}.cls-15_market-analysis-31{fill:url(#linear-gradient-6-market-analysis-31);}.cls-16_market-analysis-31{fill:#231f20;}.cls-17_market-analysis-31{fill:#fff;}.cls-18_market-analysis-31{fill:#ffb4a3;}</style><linearGradient id="linear-gradient-market-analysis-31" x1="257.49" y1="336.62" x2="266.6" y2="140.09" gradientUnits="userSpaceOnUse"><stop offset="0" stop-color="#231f20" stop-opacity="0"/><stop offset="1" stop-color="#231f20"/></linearGradient><linearGradient id="linear-gradient-2-market-analysis-31" x1="297.37" y1="2667.21" x2="305.16" y2="2978.1" gradientTransform="translate(-36.02 2940.97) scale(1 -1)" xlink:href="#linear-gradient-market-analysis-31"/><linearGradient id="linear-gradient-3-market-analysis-31" x1="251.43" y1="2838.82" x2="126.97" y2="2754.12" gradientTransform="translate(-36.02 2940.97) scale(1 -1)" xlink:href="#linear-gradient-market-analysis-31"/><linearGradient id="linear-gradient-4-market-analysis-31" x1="254" y1="2810.53" x2="396.21" y2="2810.53" gradientTransform="translate(-36.02 2940.97) scale(1 -1)" xlink:href="#linear-gradient-market-analysis-31"/><linearGradient id="linear-gradient-5-market-analysis-31" x1="188.79" y1="2740.25" x2="203.77" y2="2740.25" gradientTransform="translate(-31 2945.64) scale(1 -1)" xlink:href="#linear-gradient-market-analysis-31"/><linearGradient id="linear-gradient-6-market-analysis-31" x1="396.53" y1="2740.58" x2="375.72" y2="2739.97" gradientTransform="translate(-31 2945.64) scale(1 -1)" xlink:href="#linear-gradient-market-analysis-31"/><linearGradient id="linear-gradient-7-market-analysis-31" x1="295.73" y1="2768.26" x2="297.47" y2="2679.93" gradientTransform="translate(-36.02 2940.97) scale(1 -1)" xlink:href="#linear-gradient-market-analysis-31"/><linearGradient id="linear-gradient-8-market-analysis-31" x1="291.45" y1="2751.67" x2="291.89" y2="2742.12" gradientTransform="translate(-31 2945.64) scale(1 -1)" gradientUnits="userSpaceOnUse"><stop offset=".02" stop-color="#fff" stop-opacity="0"/><stop offset=".58" stop-color="#fff" stop-opacity=".39"/><stop offset=".68" stop-color="#fff" stop-opacity=".68"/><stop offset="1" stop-color="#fff"/></linearGradient><linearGradient id="linear-gradient-9-market-analysis-31" x1="233.01" y1="2746.32" x2="216.21" y2="2765.72" gradientTransform="translate(-2538.56 409.17) rotate(80.78) scale(1 -1)" xlink:href="#linear-gradient-8-market-analysis-31"/><linearGradient id="linear-gradient-10-market-analysis-31" x1="343.92" y1="2742.63" x2="316.99" y2="2758.85" xlink:href="#linear-gradient-8-market-analysis-31"/><linearGradient id="linear-gradient-11-market-analysis-31" x1="298.9" y1="2859.28" x2="296.95" y2="3095.81" gradientTransform="translate(-36.02 2940.97) scale(1 -1)" xlink:href="#linear-gradient-8-market-analysis-31"/><linearGradient id="linear-gradient-12-market-analysis-31" x1="386.89" y1="2850.81" x2="478.55" y2="2876.44" gradientTransform="translate(-36.02 2940.97) scale(1 -1)" xlink:href="#linear-gradient-8-market-analysis-31"/><linearGradient id="linear-gradient-13-market-analysis-31" x1="228.11" y1="2845.25" x2="802.52" y2="2794.43" gradientTransform="translate(-36.02 2940.97) scale(1 -1)" xlink:href="#linear-gradient-8-market-analysis-31"/></defs><path id="background_market-analysis-31" class="cls-2_market-analysis-31 targetColor" d="M455.73,284.51c8.41-22.66,13.61-49.09,1.74-70.14-8.07-14.3-22.65-23.55-37.19-31.26-41.63-22.08-87.95-36.71-124-67.05-5.9-4.97-11.59-10.39-18.58-13.64-7.41-3.45-15.76-4.2-23.92-4.86-35.27-2.86-71.47-4.98-105.33,5.29-33.85,10.27-65.29,35.51-73.16,69.99-6.06,26.63,2.37,55.28-5.45,81.45-6.5,21.7-23.49,39.19-29.23,61.12-9.61,36.61,16.37,75.29,50.39,91.96,34.01,16.67,73.69,16.2,111.44,13.14,18.98-1.55,37.99-3.67,56.39-8.56,16.51-4.37,32.58-10.97,49.59-12.06,26.54-1.7,55.98,9.58,78.23-4.98,7.77-5.07,13.55-12.82,21.49-17.61,16.43-9.91,24.61-12.59,28.21-31.84,4.01-21.46,11.81-40.56,19.38-60.94Z" style="fill: rgb(108, 99, 255);"/><g id="character_market-analysis-31"><path class="cls-19_market-analysis-31 targetColor" d="M225.44,297.45s-114.47,13.73-126.3,42.57c-11.83,28.84-27.41,54.33-27.41,54.33,0,0,95.61,78.64,171.38,53.82,75.77-24.82,82.14-41.07,120.42-38.22,38.27,2.85,70.11-39.65,70.11-57.36s-118.36-54.03-137.43-52.88c-19.07,1.16-70.76-2.27-70.76-2.27Z" style="fill: rgb(108, 99, 255);"/><path class="cls-18_market-analysis-31" d="M224.88,296.74c.1.79.12,1.57-.02,2.26-.19.93-.76,1.9-1.06,2.83-.78,2.37-1.5,4.76-2.24,7.14-1.28,4.16-2.39,8.58-4.34,12.49-4.12,8.25-.14,18.8,6.87,24.85,7.01,6.05,16.29,8.62,25.32,10.65,13.35,3,28.61,4.9,39.6-3.24,10.51-7.77,13.51-22.31,12.62-35.34-.55-6.46-1.47-12.88-2.77-19.23l-7.76-42.29c-.09-.73-.34-1.43-.75-2.05-.85-1.1-2.43-1.23-3.82-1.25-14.52-.17-37.97.27-50.67,8.38-2.52,1.61-5.3,4.06-6.3,6.98s-3.24,5.28-4.41,8.25c-2.06,5.23-1.54,11.09-.76,16.66.12.88.35,1.91.47,2.91Z"/><path class="cls-1_market-analysis-31" d="M228.28,305.69c4.14,9.27,12.95,15.92,22.6,18.01,9.65,2.09,19.95-.15,28.44-5.35,6.94-4.26,12.91-10.7,15.36-18.66,1.37-4.5,1.59-9.23,1.81-13.92l.62-13.46c-3.93,5.91-11.08,8.59-17.94,9.59-17.28,2.52-32.32-3.98-48.48-8.9-7.59-2.31-7.45,2.49-6.84,9.15.72,7.87,1.2,16.27,4.44,23.54Z"/><path class="cls-18_market-analysis-31" d="M198.91,249.65s29.11,48.15,49.45,50.41c20.34,2.26,50.96,1.42,72.61-49.23,21.65-50.65,25.52-118.03-9.01-130.03,0,0-169.22-45.18-113.05,128.85Z"/><path class="cls-11_market-analysis-31" d="M318.43,251.61c-.62,3.23-1.39,6.75-3.9,8.84-3.46,2.91-8.78,1.97-12.76-.15-8.14-4.3-13.55-12.27-19.85-18.99-2.72-2.96-5.83-5.53-9.25-7.65l3.66,7.29c.73,1.32,1.31,2.71,1.73,4.16.4,1.62.4,3.31,0,4.92-.06.36-.21.71-.43,1.01-.34.34-.77.58-1.25.68-1.99.5-4.03.76-6.09.75-3.61.14-7.32.27-10.7-.98-1.01-.38-2.12-1.06-2.21-2.14-.13-1.5,1.76-2.34,3.28-2.54,2.04,0,3.98-.26,6-.06,2.78.26,2.67.49,2.69-2.41,0-4.14-.06-8.25-.1-12.44-3.57-1.68-7.58-2.22-11.47-1.54-7.59,1.49-13.1,7.96-17.34,14.4-4.25,6.44-8.19,13.51-14.75,17.63-7.29,4.56-20.19,3.63-21.4-6.45-1.28-10.72,4.96-23.95,10.96-32.42,8.06-11.3,19.69-19.55,33.02-23.41,4.72-1.36,9.7-2.14,14.57-1.5,5.39.71,10.4,3.1,15.3,5.46l25.69,12.34c4.4,2.12,8.96,4.35,12.01,8.16,5.8,7.32,4.35,17.85,2.6,27.05Z"/><path class="cls-16_market-analysis-31" d="M370.06,115.77c.13,1.22,1.33,1.99,2.25,2.84,3.82,3.66,2.21,10.38-1.41,14.26s-8.68,6.07-12.71,9.52c-2.45,1.95-4.1,4.74-4.61,7.83-.71,4.26.53,8.82.71,13.61.05,1.34,0,2.69-.18,4.02-1.52,11.43-5.8,22.32-12.47,31.73-1.97,2.71-4.59,5.46-7.94,5.61-5.4.24-8.49-6-9.94-11.21-2.97-10.61-5.15-21.43-6.5-32.37-.53-4.13-.93-8.27-1.21-12.41-1.07,5.01-8.32,6.21-12.59,3.4-.24-.16-.47-.32-.71-.5-3.8-2.89-5.77-7.65-7.87-12.01-2.25-4.62-5.35-9.44-10.31-10.72-5.63-1.45-11.34,0-17.07-.23-8.83-.38-17.69-1.35-26.5-2.02-4.78-.36-9.76-.71-14.2,1.02-1.56.61-2.99,1.5-4.23,2.64-2.34,2.17-3.83,5.14-3.42,8.25-8.95-.31-9.26,6.87-15.89,12.89-6.63,6.02-18.44,11.59-13.28,18.91,5.36,7.62,1.3,12.65.8,21.65-.83,14.96-5.42,29.42-9.97,43.7-6.9-9.88-13.94-20.04-17.04-31.68-1.57-5.85-2.57-11.61-3.64-17.26-1.69-9.01-3.55-17.87-8.04-26.73-1.77-3.49-3.95-6.75-5.21-10.51-1.88-5.54-1.57-11.54-1.24-17.37.75-12.45,1.74-25.79,9.51-35.55,2.86-3.47,6.49-6.22,10.61-8.02,5.68-2.69,11.76-4.33,16.98-8.32,2.79-2.14,4.71-5.25,6.25-8.68,2.83-6.33,4.41-13.94,7.83-19.32,6.16-9.48,14.92-16.99,25.24-21.64,17.13-7.83,36.77-8.32,55.44-5.77,15.44,2.12,30.93,6.36,43.77,15.2,5.44,3.92,10.54,8.31,15.23,13.1,11.51,11.22,22.32,23.32,37.52,27.55,5.13,1.43,11.14,2.25,14.03,6.71,3,4.62.91,11.03-2.85,15.06-3.76,4.03-8.86,6.49-13.26,9.82-.92.75-2.02,1.76-1.89,3Z"/><path class="cls-12_market-analysis-31" d="M172.63,149.26c-2.73,4.84-4.77,10.66-2.86,15.89,2.6-1.5,5.25-2.93,7.83-4.39l-17.45,26.48c-1.69-9.01-3.55-17.87-8.04-26.73-1.77-3.49-3.95-6.75-5.21-10.51-1.88-5.54-1.57-11.54-1.24-17.37.75-12.45,1.74-25.79,9.51-35.55,2.86-3.47,6.49-6.22,10.61-8.02,1.15.55,2.19,1.31,3.05,2.25,4.06,4.43,5.06,11.5,6.71,17.02,2.51,8.35,6.69,17.26,4.6,26.13-1.29,5.4-4.78,9.97-7.5,14.81Z"/><path class="cls-10_market-analysis-31" d="M356.15,133.15c-3.59,4.79-3.41,10.93-2.59,17.08.34,2.54.75,5.07,1.12,7.5.27,2.03.41,4.26-.41,6.09-.16.34-.35.66-.56.96-2.59,3.53-8.04,2.43-12.16.98-10.11-3.59-17.54-2.65-24.31-4.16-4.69-1.06-9.07-3.28-13.79-9.01-.2-.22-.44-.39-.71-.5-3.8-2.89-5.77-7.65-7.87-12.01-2.25-4.62-5.35-9.44-10.31-10.72-5.63-1.45-11.34,0-17.07-.23-8.83-.38-17.69-1.35-26.5-2.02-4.78-.36-9.76-.71-14.2,1.02-1.56.61-2.99,1.5-4.23,2.64-1.92-.44-3.36-1.81-4.07-4.86-1.75-7.67,1.12-18.33,6.7-23.79,5.58-5.46,13.76-6.91,21.52-7.68,16.51-1.65,34.21-.91,48.08,8.16,6.36,4.16,11.69,9.91,18.45,13.39,12.31,6.34,27.06,4.12,40.81,5.79,2.32.28,5.02.97,5.88,3.14,1.14,2.95-1.88,5.68-3.79,8.22Z"/><path class="cls-18_market-analysis-31" d="M241.7,172.06c-1.61-3.62-4.5-6.54-7.5-9.04-12.24-9.98-29.27-14.34-44.46-10-2.95.79-5.76,2.03-8.34,3.66-4.19,2.75-7.36,6.75-10.16,10.93-16.65,24.71-22.21,55.11-24.59,84.75-.53,6.71.2,13.85-2.54,19.99-22.97,51.46-72.97,116.13-72.37,122,17.94,15.01,49.13,35.6,63.26,36.12,7.92-14.57,38.51-119.25,44.94-134.54,2.53-6,7.02-19.18,10.72-24.54,9.96-14.41,25.55-14.45,37.31-27.41,2.96-3.26,5.58-7,6.57-11.29.84-3.65.45-7.46.27-11.2-.44-9.06.36-18.13,2.38-26.97,1.7-7.5,7.92-14.73,4.51-22.45Z"/><rect class="cls-19_market-analysis-31 targetColor" x="156.48" y="197.69" width="14.99" height="15.42" rx="6.56" ry="6.56" style="fill: rgb(108, 99, 255);"/><rect class="cls-14_market-analysis-31" x="157.79" y="197.69" width="14.99" height="15.42" rx="6.56" ry="6.56"/><path class="cls-18_market-analysis-31" d="M284.53,172.06c1.61-3.62,4.5-6.54,7.54-9.04,12.23-9.98,29.27-14.34,44.45-10,2.95.79,5.76,2.03,8.35,3.66,4.19,2.75,7.35,6.75,10.15,10.93,16.63,24.71,22.19,55.11,24.56,84.75.53,6.71-.2,13.85,2.54,19.99,22.96,51.44,57.75,77.16,57.15,83.04,10.3,33.21-35.53,53.35-54.18,51.58-7.92-14.57-32.37-95.77-38.8-111.07-2.52-6-7.02-19.18-10.72-24.54-9.95-14.41-25.52-14.45-37.31-27.41-2.96-3.26-5.58-7-6.57-11.29-.85-3.65-.46-7.46-.28-11.2.44-9.06-.36-18.13-2.37-26.97-1.71-7.47-7.92-14.7-4.52-22.42Z"/><rect class="cls-19_market-analysis-31 targetColor" x="348.19" y="197.69" width="14.99" height="15.42" rx="6.56" ry="6.56" style="fill: rgb(108, 99, 255);"/><rect class="cls-15_market-analysis-31" x="346.68" y="197.69" width="14.99" height="15.42" rx="6.56" ry="6.56"/><path class="cls-19_market-analysis-31 targetColor" d="M240.17,181.06s16.8,11,39.38-.87v37.64s-19.98-14.19-37.36,0l-2.03-36.77Z" style="fill: rgb(108, 99, 255);"/><path class="cls-13_market-analysis-31" d="M240.17,181.06s16.8,11,39.38-.87v37.64s-19.98-14.19-37.36,0l-2.03-36.77Z"/><rect class="cls-19_market-analysis-31 targetColor" x="242.78" y="193.7" width="35.83" height="11.44" style="fill: rgb(108, 99, 255);"/><rect class="cls-9_market-analysis-31" x="242.78" y="193.7" width="35.83" height="11.44"/><circle class="cls-19_market-analysis-31 targetColor" cx="205.85" cy="203.76" r="41.27" transform="translate(-28.25 374.32) rotate(-80.78)" style="fill: rgb(108, 99, 255);"/><circle class="cls-8_market-analysis-31" cx="205.85" cy="203.76" r="41.27" transform="translate(-28.25 374.32) rotate(-80.78)"/><circle class="cls-17_market-analysis-31" cx="205.61" cy="204.16" r="35.73"/><circle class="cls-19_market-analysis-31 targetColor" cx="314.17" cy="203.76" r="41.27" style="fill: rgb(108, 99, 255);"/><circle class="cls-6_market-analysis-31" cx="314.17" cy="203.76" r="41.27"/><circle class="cls-17_market-analysis-31" cx="313.91" cy="204.16" r="35.73"/><rect class="cls-19_market-analysis-31 targetColor" x="252.99" y="180.6" width="10.86" height="11.73" rx="4.68" ry="4.68" style="fill: rgb(108, 99, 255);"/><path class="cls-5_market-analysis-31" d="M336.51,53.64c-1.2,1.44-2.56,2.73-4.07,3.84-10.64,7.74-25.46,3.2-37.67-1.69-13.43-5.38-27.11-10.93-41.54-11.83s-30.02,3.65-38.76,15.18c-4.96,6.54-8.96,15.89-17.15,16.34-3.15.08-6.19-1.16-8.39-3.41,2.83-6.33,4.41-13.94,7.83-19.32,6.16-9.48,14.92-16.99,25.24-21.64,17.13-7.83,36.77-8.32,55.44-5.77,15.44,2.12,30.93,6.36,43.77,15.2,5.46,3.92,10.58,8.3,15.29,13.1Z"/><path class="cls-3_market-analysis-31" d="M357.38,86.32c4.59,3.09,10.32,3.98,15.85,4.23,2.03-.02,4.05.23,6,.75,1.92.64,3.75,2,4.3,3.94.35,1.16.26,2.47.95,3.45.1.17.27.3.46.35.3.01.58-.13.75-.38,2.5-2.79,2.87-6.89.92-10.09-2.43-3.75-7.32-4.89-11.59-6.27-5.43-1.75-10.54-4.39-15.11-7.81-2.68-2.01-8.83-6.22-9.22-.2-.31,4.76,2.91,9.49,6.69,12.02Z"/><path class="cls-4_market-analysis-31" d="M212.74,95.21c1.99-4.5,4.21-9.13,7.98-12.33,4.5-3.8,10.57-5.07,16.37-6,6.66-1.12,13.41-2.03,20.17-1.79,13.15.44,25.96,5.34,36.69,12.92,8.73,6.19,17.73,14.63,28.34,13.16,9.1,4.5-3.62,17.36-6.97,15.98-6.87-2.82-20.89-15.9-27.68-18.89-13.36-5.87-28.52-5.48-43.11-4.5-3.46.23-7.02.51-10.1,2.12s-5.41,4.44-7.42,7.31c-2.91,4.17-5.51,8.76-6.69,13.74-.92,3.82.69,8.92-4.33,7.2-11.35-3.85-6.42-21.68-3.24-28.92Z"/></g><g id="pie_chart_market-analysis-31"><path class="cls-2_market-analysis-31 targetColor" d="M315.33,183.75c11.34.2,20.36,9.56,20.16,20.9-.2,11.34-9.56,20.36-20.9,20.16-11.18-.2-20.14-9.3-20.16-20.48,0-.7.04-1.38.11-2.06l20.43,2.02.37-20.54Z" style="fill: rgb(108, 99, 255);"/><path class="cls-7_market-analysis-31 targetColor" d="M313.39,181.92c.13,0,.27,0,.41,0l-.37,20.52-20.44-2c1.04-10.49,9.86-18.5,20.4-18.51Z" style="fill: rgb(108, 99, 255);"/></g><g id="data_market-analysis-31"><polygon class="cls-19_market-analysis-31 targetColor" points="222.9 219.93 184.86 219.93 184.86 216.85 219.81 216.85 219.81 180.46 222.9 180.46 222.9 219.93" style="fill: rgb(108, 99, 255);"/><rect class="cls-19_market-analysis-31 targetColor" x="186.24" y="198.12" width="7.31" height="16.36" style="fill: rgb(108, 99, 255);"/><rect class="cls-19_market-analysis-31 targetColor" x="196.38" y="186.09" width="7.31" height="28.39" style="fill: rgb(108, 99, 255);"/><rect class="cls-19_market-analysis-31 targetColor" x="207.08" y="192.06" width="7.31" height="22.42" style="fill: rgb(108, 99, 255);"/></g></svg>